<?xml version="1.0" encoding="utf-8"?>
<!-- Generator: Adobe Illustrator 15.0.0, SVG Export Plug-In . SVG Version: 6.00 Build 0)  -->
<!DOCTYPE svg PUBLIC "-//W3C//DTD SVG 1.1//EN" "http://www.w3.org/Graphics/SVG/1.1/DTD/svg11.dtd">
<svg version="1.1" id="Layer_1" xmlns="http://www.w3.org/2000/svg" xmlns:xlink="http://www.w3.org/1999/xlink" x="0px" y="0px"
	 width="335.5px" height="28px" viewBox="0 0 335.5 28" enable-background="new 0 0 335.5 28" xml:space="preserve">
<path fill="#F4E800" d="M18.459,24.1c-0.996,1.078-2.218,1.891-3.665,2.436c-1.447,0.545-3.032,0.816-4.755,0.816
	c-2.941,0-5.227-0.91-6.855-2.733c-1.629-1.822-2.467-4.474-2.514-7.954v-4.605c0-3.527,0.771-6.243,2.312-8.147
	C4.523,2.008,6.77,1.055,9.723,1.055c2.777,0,4.872,0.686,6.284,2.057c1.412,1.371,2.229,3.521,2.452,6.451h-5.027
	c-0.141-1.629-0.48-2.739-1.02-3.331c-0.54-0.592-1.383-0.888-2.531-0.888c-1.395,0-2.408,0.51-3.041,1.529
	c-0.633,1.019-0.961,2.643-0.984,4.869v4.641c0,2.332,0.349,4.028,1.046,5.09c0.697,1.061,1.843,1.59,3.437,1.59
	c1.02,0,1.846-0.205,2.479-0.614l0.457-0.316v-4.692H9.652v-3.902h8.807V24.1z"/>
<path fill="#F4E800" d="M29.867,17.648h-2.566V27h-5.168V1.407h8.244c2.59,0,4.591,0.671,6.003,2.013
	c1.412,1.342,2.118,3.249,2.118,5.722c0,3.398-1.236,5.777-3.709,7.137l4.482,10.476V27h-5.555L29.867,17.648z M27.301,13.342h2.936
	c1.031,0,1.805-0.343,2.32-1.028c0.515-0.685,0.773-1.603,0.773-2.751c0-2.566-1.002-3.85-3.006-3.85h-3.023V13.342z"/>
<path fill="#F4E800" d="M60.066,16.506c0,3.434-0.812,6.1-2.435,7.998s-3.876,2.848-6.759,2.848c-2.871,0-5.127-0.939-6.768-2.822
	c-1.641-1.881-2.473-4.514-2.496-7.9v-4.377c0-3.516,0.814-6.261,2.443-8.235c1.629-1.974,3.891-2.962,6.785-2.962
	c2.848,0,5.092,0.97,6.732,2.909c1.64,1.939,2.473,4.661,2.496,8.165v4.377H60.066z M54.881,12.217c0-2.309-0.328-4.025-0.984-5.15
	c-0.656-1.125-1.676-1.688-3.059-1.688c-1.371,0-2.385,0.542-3.041,1.626c-0.656,1.084-0.996,2.733-1.02,4.948v4.553
	c0,2.238,0.334,3.889,1.002,4.948s1.699,1.591,3.094,1.591c1.348,0,2.35-0.52,3.006-1.556c0.656-1.037,0.99-2.646,1.002-4.825
	V12.217z"/>
<path fill="#F4E800" d="M80.422,1.407v17.719c-0.023,2.66-0.756,4.696-2.197,6.108s-3.51,2.117-6.205,2.117
	c-2.742,0-4.837-0.715-6.284-2.144c-1.447-1.431-2.171-3.498-2.171-6.205V1.407h5.203V19.02c0,1.453,0.234,2.49,0.703,3.111
	c0.469,0.621,1.318,0.932,2.549,0.932s2.074-0.308,2.531-0.922c0.457-0.615,0.691-1.627,0.703-3.033v-17.7H80.422z"/>
<path fill="#F4E800" d="M97.543,16.559H89.51V27h-5.168V1.407H98.51v4.307h-9v6.557h8.033V16.559z"/>
<path fill="#F4E800" d="M119.48,16.506c0,3.434-0.812,6.1-2.435,7.998s-3.876,2.848-6.759,2.848c-2.871,0-5.127-0.939-6.768-2.822
	c-1.641-1.881-2.473-4.514-2.496-7.9v-4.377c0-3.516,0.814-6.261,2.443-8.235c1.629-1.974,3.891-2.962,6.785-2.962
	c2.848,0,5.092,0.97,6.732,2.909s2.473,4.661,2.496,8.165v4.377H119.48z M114.295,12.217c0-2.309-0.328-4.025-0.984-5.15
	c-0.656-1.125-1.676-1.688-3.059-1.688c-1.371,0-2.385,0.542-3.041,1.626c-0.656,1.084-0.996,2.733-1.02,4.948v4.553
	c0,2.238,0.334,3.889,1.002,4.948s1.699,1.591,3.094,1.591c1.348,0,2.35-0.52,3.006-1.556c0.656-1.037,0.99-2.646,1.002-4.825
	V12.217z"/>
<path fill="none" stroke="#FFFFFF" stroke-miterlimit="10" d="M143.703,21.762h-7.049L135.283,27h-5.467l7.998-25.593h4.729
	L150.594,27h-5.52L143.703,21.762z M137.779,17.456h4.781l-2.391-9.123L137.779,17.456z"/>
<path fill="none" stroke="#FFFFFF" stroke-miterlimit="10" d="M169.332,1.407v17.719c-0.023,2.66-0.756,4.696-2.197,6.108
	c-1.441,1.412-3.51,2.117-6.205,2.117c-2.742,0-4.837-0.715-6.284-2.144c-1.447-1.431-2.171-3.498-2.171-6.205V1.407h5.203V19.02
	c0,1.453,0.234,2.49,0.703,3.111c0.469,0.621,1.318,0.932,2.549,0.932s2.074-0.308,2.531-0.922c0.457-0.615,0.691-1.627,0.703-3.033
	v-17.7H169.332z"/>
<path fill="none" stroke="#FFFFFF" stroke-miterlimit="10" d="M189.828,5.713H183.5V27h-5.186V5.713h-6.224V1.407h17.736
	L189.828,5.713L189.828,5.713z"/>
<path fill="none" stroke="#FFFFFF" stroke-miterlimit="10" d="M210.324,16.506c0,3.434-0.813,6.1-2.436,7.998
	s-3.875,2.848-6.759,2.848c-2.871,0-5.127-0.939-6.769-2.822c-1.641-1.881-2.473-4.514-2.495-7.9v-4.377
	c0-3.516,0.813-6.261,2.442-8.235s3.892-2.962,6.785-2.962c2.848,0,5.092,0.97,6.732,2.909c1.64,1.939,2.473,4.661,2.496,8.165
	v4.377H210.324z M205.139,12.217c0-2.309-0.328-4.025-0.984-5.15c-0.655-1.125-1.676-1.688-3.059-1.688
	c-1.371,0-2.385,0.542-3.041,1.626s-0.996,2.733-1.02,4.948v4.553c0,2.238,0.334,3.889,1.002,4.948s1.699,1.591,3.094,1.591
	c1.348,0,2.35-0.52,3.006-1.556c0.656-1.037,0.99-2.646,1.002-4.825V12.217L205.139,12.217z"/>
<path fill="none" stroke="#FFFFFF" stroke-miterlimit="10" d="M230.082,17.648h-2.566V27h-5.168V1.407h8.244
	c2.59,0,4.59,0.671,6.004,2.013c1.41,1.342,2.116,3.249,2.116,5.722c0,3.398-1.235,5.777-3.709,7.137l4.481,10.476V27h-5.555
	L230.082,17.648z M227.516,13.342h2.937c1.03,0,1.804-0.343,2.319-1.028c0.517-0.685,0.773-1.603,0.773-2.751
	c0-2.566-1.002-3.85-3.005-3.85h-3.022v7.629H227.516z"/>
<path fill="none" stroke="#FFFFFF" stroke-miterlimit="10" d="M255.482,15.926h-8.051v6.785h9.527V27h-14.695V1.407h14.66v4.307
	h-9.492v6.047h8.051V15.926L255.482,15.926z"/>
<path fill="none" stroke="#FFFFFF" stroke-miterlimit="10" d="M277.824,27h-5.168l-7.559-16.787V27h-5.168V1.407h5.168l7.575,16.805
	V1.407h5.15L277.824,27L277.824,27z"/>
<path fill="none" stroke="#FFFFFF" stroke-miterlimit="10" d="M298.039,5.713h-6.328V27h-5.186V5.713h-6.224V1.407h17.736
	L298.039,5.713L298.039,5.713z"/>
<path fill="none" stroke="#FFFFFF" stroke-miterlimit="10" d="M311.117,21.762h-7.049L302.697,27h-5.467l7.998-25.593h4.729
	L318.008,27h-5.52L311.117,21.762z M305.193,17.456h4.781l-2.392-9.123L305.193,17.456z"/>
<path fill="none" stroke="#FFFFFF" stroke-miterlimit="10" d="M325.566,22.711h9.07V27h-14.238V1.407h5.168V22.711z"/>
</svg>
