<?xml version="1.0" encoding="utf-8"?>
<!-- Generator: Adobe Illustrator 15.0.0, SVG Export Plug-In . SVG Version: 6.00 Build 0)  -->
<!DOCTYPE svg PUBLIC "-//W3C//DTD SVG 1.1//EN" "http://www.w3.org/Graphics/SVG/1.1/DTD/svg11.dtd">
<svg version="1.1" id="Layer_1" xmlns="http://www.w3.org/2000/svg" xmlns:xlink="http://www.w3.org/1999/xlink" x="0px" y="0px"
	 width="114.863px" height="50px" viewBox="192.567 0 114.863 50" enable-background="new 192.567 0 114.863 50"
	 xml:space="preserve">
<title>cars</title>
<path fill="#2E7331" d="M221.798,20.322c-6.543-3.309-5.767-7.001,0.776-6.618l1.468,2.748l3.019-9.348
	C228.248,3.356,230.23,0,234.109,0h34.174c3.88,0,6.104,3.291,7.049,7.048l2.299,9.114l1.309-2.458
	c6.73-0.393,7.338,3.524,0.206,6.898l1.159,1.776c4.674,4.813,4.244,9.618,3.515,21.499v3.908c0,1.215-0.981,2.2-2.196,2.205h-9.441
	c-1.215-0.005-2.197-0.99-2.197-2.205v-1.758h-39.951v1.767c0,1.218-0.988,2.206-2.206,2.206l0,0h-9.348
	c-1.218,0-2.206-0.988-2.206-2.206l0,0v-5.075c0-0.113,0-0.225,0-0.346c-0.71-9.124-1.72-17.35,5.543-22.051H221.798z
	 M233.801,31.146l-8.348-1.057c-1.972-0.215-2.505,0.617-1.869,2.309l0.935,2.197c0.253,0.512,0.641,0.944,1.122,1.252
	c0.568,0.332,1.212,0.513,1.87,0.523l7.478,0.057c1.795,0,2.571-0.721,2.01-2.375c-0.407-1.502-1.645-2.635-3.178-2.906H233.801z
	 M266.209,31.146l8.348-1.057c1.963-0.215,2.495,0.617,1.869,2.309l-0.944,2.188c-0.257,0.512-0.647,0.945-1.131,1.252
	c-0.567,0.334-1.212,0.515-1.87,0.523l-7.478,0.057c-1.804,0-2.58-0.72-2.019-2.374c0.41-1.505,1.651-2.637,3.188-2.907
	L266.209,31.146z M227.155,18.527h47.093l-2.225-9.46c-0.674-2.879-2.469-5.328-5.422-5.328H235.39
	c-2.954,0-4.496,2.514-5.375,5.328L227.155,18.527L227.155,18.527z"/>
<path fill="#FFFFFF" d="M266.043,30.979l8.348-1.057c1.963-0.215,2.495,0.617,1.869,2.309l-0.944,2.188
	c-0.257,0.512-0.647,0.945-1.131,1.252c-0.567,0.334-1.212,0.515-1.87,0.523l-7.478,0.057c-1.804,0-2.58-0.72-2.019-2.374
	c0.41-1.505,1.651-2.637,3.188-2.907L266.043,30.979z"/>
<path fill="#64AD67" d="M279.902,0.911h12.152c3.738,0,5.889,3.168,6.795,6.795l2.15,8.797l1.253-2.375
	c6.497-0.373,7.075,3.402,0.206,6.656l1.14,1.682c4.524,4.674,4.095,9.283,3.394,20.762v3.738c0,1.172-0.95,2.122-2.122,2.122
	h-9.077c-1.172,0-2.121-0.95-2.121-2.122v-1.645h-3.365v-1.355v-0.589c0.168-2.729,0.318-5.132,0.393-7.282l5.355-0.047
	c0.635-0.004,1.257-0.175,1.805-0.495c0.467-0.3,0.846-0.719,1.094-1.215l0.869-2.112c0.645-1.646,0.131-2.439-1.767-2.234
	l-7.338,0.888c-0.073-3.104-0.926-6.142-2.478-8.833c0.496-0.549,0.936-1.147,1.309-1.785l0,0c0.268-0.471,0.496-0.961,0.684-1.468
	h7.608l-2.196-9.124c-0.599-2.804-2.328-5.188-5.188-5.188h-9.086C280.996,3.248,280.504,2.052,279.902,0.911z"/>
<path fill="#1F4C21" d="M222.621,0.892h-14.657c-3.739,0-5.889,3.168-6.796,6.795l-2.196,8.797l-1.253-2.375
	c-6.496-0.373-7.076,3.402-0.205,6.656l-1.112,1.682c-4.524,4.674-4.104,9.348-3.394,20.799v3.738c0,1.172,0.95,2.123,2.122,2.123
	l0,0h9.077c1.172,0,2.121-0.951,2.121-2.123l0,0v-1.682h3.384v-2.889l-0.056-0.691c-0.15-1.944-0.309-3.842-0.393-5.693
	l-5.356-0.047c-0.627,0.009-1.245-0.146-1.794-0.448c-0.488-0.307-0.88-0.743-1.132-1.262l-0.869-2.112
	c-0.608-1.646-0.065-2.439,1.804-2.234l7.366,0.935c0.09-3.583,1.118-7.08,2.981-10.142c-0.158-0.234-0.289-0.468-0.42-0.691
	c-0.221-0.408-0.414-0.83-0.58-1.263h-9.066l2.196-9.123c0.599-2.804,2.327-5.188,5.188-5.188h11.497
	C221.5,3.228,222.016,2.037,222.621,0.892z"/>
</svg>
