<?xml version="1.0" encoding="utf-8"?>
<!-- Generator: Adobe Illustrator 15.0.0, SVG Export Plug-In . SVG Version: 6.00 Build 0)  -->
<!DOCTYPE svg PUBLIC "-//W3C//DTD SVG 1.1//EN" "http://www.w3.org/Graphics/SVG/1.1/DTD/svg11.dtd">
<svg version="1.1" id="Layer_1" xmlns="http://www.w3.org/2000/svg" xmlns:xlink="http://www.w3.org/1999/xlink" x="0px" y="0px"
	 width="59.547px" height="50px" viewBox="220.224 0 59.547 50" enable-background="new 220.224 0 59.547 50" xml:space="preserve">
<g>
	<path fill="#FFF800" d="M232.825,0h34.346c3.465,0,6.615,1.42,8.897,3.703l0.107,0.116c2.219,2.273,3.596,5.379,3.596,8.787v24.794
		c0,3.466-1.42,6.615-3.703,8.897C273.786,48.58,270.636,50,267.171,50h-34.346c-3.46,0-6.611-1.42-8.894-3.703h-0.004
		c-2.283-2.282-3.703-5.432-3.703-8.902V12.601c0-3.456,1.415-6.605,3.703-8.893l0.009-0.015C226.224,1.415,229.369,0,232.825,0
		L232.825,0z M240.244,14.413h19.512c1.09,0,1.982,0.892,1.982,1.982l0,0c0,1.09-0.893,1.982-1.982,1.982h-19.512
		c-1.09,0-1.982-0.892-1.982-1.982l0,0C238.262,15.305,239.154,14.413,240.244,14.413L240.244,14.413L240.244,14.413z
		 M240.244,31.623h19.512c1.09,0,1.982,0.891,1.982,1.981l0,0c0,1.091-0.893,1.982-1.982,1.982h-19.512
		c-1.09,0-1.982-0.892-1.982-1.982l0,0C238.262,32.514,239.154,31.623,240.244,31.623L240.244,31.623L240.244,31.623z
		 M240.244,23.021h19.512c1.09,0,1.982,0.892,1.982,1.982l0,0c0,1.09-0.893,1.982-1.982,1.982h-19.512
		c-1.09,0-1.982-0.892-1.982-1.982l0,0C238.262,23.912,239.154,23.021,240.244,23.021L240.244,23.021L240.244,23.021z
		 M267.176,3.974h-34.351c-2.375,0-4.532,0.969-6.092,2.53l-0.01,0.01c-1.556,1.556-2.525,3.712-2.525,6.087v24.794
		c0,2.37,0.974,4.526,2.535,6.087l-0.005,0.005c1.565,1.561,3.722,2.535,6.092,2.535h34.346c2.365,0,4.521-0.975,6.087-2.54
		s2.54-3.722,2.54-6.087V12.601c0-2.326-0.936-4.444-2.443-6.005l-0.092-0.087C271.697,4.948,269.545,3.974,267.176,3.974
		L267.176,3.974z"/>
</g>
</svg>
