<?xml version="1.0" encoding="utf-8"?>
<!-- Generator: Adobe Illustrator 15.0.0, SVG Export Plug-In . SVG Version: 6.00 Build 0)  -->
<!DOCTYPE svg PUBLIC "-//W3C//DTD SVG 1.1//EN" "http://www.w3.org/Graphics/SVG/1.1/DTD/svg11.dtd">
<svg version="1.1" id="Layer_1" xmlns="http://www.w3.org/2000/svg" xmlns:xlink="http://www.w3.org/1999/xlink" x="0px" y="0px"
	 width="49.658px" height="50px" viewBox="224.891 0 49.658 50" enable-background="new 224.891 0 49.658 50" xml:space="preserve">
<title>mobile-outline</title>
<path fill="#3355FF" d="M246.169,28.002c1.191,1.271,2.492,2.434,3.888,3.476c1.509,1.122,3.109,2.117,4.783,2.976l0.07-0.049
	c0.122-0.098,0.262-0.225,0.408-0.367c0.147-0.144,0.246-0.267,0.376-0.41l0.462-0.6c0.041-0.063,0.088-0.122,0.139-0.176
	c1.763-2.322,3.957-5.115,7.49-3.479c0.072,0.03,0.145,0.065,0.212,0.106c2.862,1.692,5.797,3.332,8.683,4.991
	c0.072,0.038,0.141,0.081,0.205,0.131l0,0c0.715,0.485,1.289,1.151,1.664,1.93c0.37,0.802,0.561,1.675,0.555,2.56l0,0
	c-0.008,0.845-0.137,1.685-0.384,2.493c-0.259,0.863-0.616,1.694-1.063,2.478c-0.552,0.975-1.271,1.847-2.122,2.575
	c-0.804,0.686-1.703,1.251-2.669,1.681h-0.021c-0.878,0.396-1.789,0.713-2.723,0.947c-0.906,0.232-1.825,0.414-2.752,0.549
	c-1.416,0.211-2.853,0.256-4.279,0.131c-1.41-0.127-2.805-0.4-4.158-0.818c-1.387-0.439-2.739-0.986-4.043-1.635
	c-1.422-0.702-2.809-1.477-4.153-2.318l-0.343-0.213c-1.255-0.78-2.608-1.635-3.978-2.645l0,0c-2.825-2.142-5.427-4.562-7.768-7.223
	c-2.27-2.566-4.257-5.369-5.927-8.36c-1.487-2.637-2.588-5.473-3.271-8.421c-0.613-2.622-0.725-5.337-0.327-8
	c0.242-1.579,0.742-3.106,1.48-4.521c0.689-1.319,1.641-2.483,2.796-3.421c1.145-0.918,2.469-1.585,3.888-1.958
	c1.5-0.383,3.055-0.5,4.595-0.347c0.41,0.026,0.807,0.157,1.153,0.38c0.339,0.219,0.62,0.519,0.817,0.871l5.502,9.317
	c0.485,0.625,0.801,1.364,0.92,2.146c0.098,0.778-0.018,1.568-0.335,2.285l0,0c-0.262,0.594-0.621,1.139-1.063,1.615
	c-0.437,0.471-0.919,0.898-1.439,1.275c-0.298,0.258-0.675,0.532-1.067,0.818l-0.037,0.028c-0.466,0.32-0.907,0.674-1.32,1.059
	c-0.162,0.13-0.288,0.299-0.368,0.49c0,0.045,0.037,0,0.078,0.07l0.139,0.216c0.462,0.724,1.353,2.105,2.371,3.573
	c0.896,1.33,1.876,2.602,2.935,3.806V28.002z M248.397,33.686c-1.521-1.137-2.94-2.402-4.243-3.782
	c-1.158-1.302-2.226-2.682-3.197-4.129c-1.014-1.463-1.946-2.906-2.428-3.679l-0.119-0.176c-0.414-0.509-0.607-1.163-0.536-1.815
	c0.108-0.862,0.525-1.657,1.173-2.236c0.516-0.489,1.07-0.938,1.656-1.341l0,0c0.327-0.237,0.638-0.466,0.919-0.708l0.086-0.065
	c0.397-0.277,0.763-0.597,1.092-0.952c0.235-0.252,0.429-0.541,0.572-0.854c0.118-0.255,0.165-0.538,0.135-0.818
	c-0.061-0.317-0.202-0.614-0.409-0.862c-0.051-0.058-0.094-0.121-0.131-0.188l-5.445-9.276c-1.181-0.107-2.371-0.012-3.52,0.282
	c-1.045,0.273-2.021,0.765-2.862,1.443c-0.862,0.704-1.572,1.574-2.089,2.559c-0.593,1.145-0.993,2.38-1.186,3.655
	c-0.344,2.314-0.248,4.672,0.286,6.95c0.632,2.692,1.646,5.28,3.009,7.685c1.569,2.81,3.439,5.439,5.576,7.845
	c2.218,2.521,4.683,4.812,7.358,6.84c1.226,0.928,2.559,1.75,3.785,2.51l0.348,0.221c1.258,0.789,2.556,1.516,3.887,2.175
	c1.174,0.585,2.392,1.075,3.643,1.468c1.166,0.365,2.368,0.607,3.586,0.719c1.213,0.104,2.434,0.066,3.638-0.113
	c0.825-0.117,1.645-0.277,2.452-0.482c0.775-0.194,1.533-0.457,2.262-0.785h0.036c0.728-0.322,1.404-0.746,2.012-1.26
	c0.606-0.52,1.118-1.141,1.513-1.836c0.342-0.598,0.616-1.232,0.817-1.893c0.169-0.555,0.259-1.132,0.27-1.713
	c0.011-0.471-0.086-0.938-0.282-1.365c-0.165-0.347-0.42-0.644-0.74-0.857c-2.211-1.582-6.095-3.512-8.584-4.951l-0.119-0.062
	l0.049,0.024l-0.049-0.024c-1.533-0.683-2.955,1.124-4.112,2.649l-0.069,0.098c-0.2,0.266-0.408,0.523-0.572,0.744
	s-0.408,0.49-0.572,0.654c-0.221,0.22-0.453,0.426-0.699,0.617c-0.277,0.209-0.58,0.379-0.903,0.507
	c-0.306,0.12-0.633,0.173-0.96,0.155c-0.283-0.02-0.559-0.087-0.818-0.2l-0.131-0.058C251.896,36.052,250.095,34.941,248.397,33.686
	z"/>
</svg>
