<?xml version="1.0" encoding="utf-8"?>
<!-- Generator: Adobe Illustrator 15.0.0, SVG Export Plug-In . SVG Version: 6.00 Build 0)  -->
<!DOCTYPE svg PUBLIC "-//W3C//DTD SVG 1.1//EN" "http://www.w3.org/Graphics/SVG/1.1/DTD/svg11.dtd">
<svg version="1.1" id="Layer_1" xmlns="http://www.w3.org/2000/svg" xmlns:xlink="http://www.w3.org/1999/xlink" x="0px" y="0px"
	 width="45.231px" height="50px" viewBox="227.384 0 45.231 50" enable-background="new 227.384 0 45.231 50" xml:space="preserve">
<g>
	<path fill="#2E7331" d="M258.545,24.084h11.287c1.53,0,2.783,1.253,2.783,2.783v11.41c0,1.529-1.253,2.783-2.783,2.783h-11.287
		c-4.667,0-8.488-3.82-8.488-8.488l0,0C250.061,27.901,253.873,24.084,258.545,24.084L258.545,24.084L258.545,24.084z
		 M245.748,8.191l1.847,1.746l4-4.057c0.354-0.358,0.573-0.643,1.008-0.2l1.408,1.445c0.465,0.456,0.439,0.724,0.004,1.151
		l-5.615,5.298c-0.919,0.903-0.761,0.956-1.693,0.033l-3.328-3.088c-0.195-0.212-0.175-0.423,0.041-0.635l1.636-1.697
		C245.296,7.931,245.492,7.947,245.748,8.191L245.748,8.191L245.748,8.191z M231.852,10.681h7.202
		c-0.012-0.204-0.02-0.407-0.02-0.614C239.038,4.508,243.542,0,249.105,0c5.558,0,10.067,4.508,10.067,10.067
		c0,0.203-0.008,0.407-0.017,0.61l2.649-0.004c2.705-0.004,4.919,2.116,4.919,4.822V16.3c1.335,0.883,2.218,2.397,2.218,4.106v1.774
		h-3.125v-1.184c0-1.273-1.042-2.311-2.312-2.311h-28.748v-2.576c0-0.342,0.281-0.623,0.623-0.623h5.241
		c-0.346-0.537-0.639-1.111-0.879-1.713h-7.194c-0.895,0-1.624,0.732-1.624,1.624V44.95c0,0.896,0.732,1.624,1.624,1.624h31.616
		c0.896,0,1.623-0.732,1.623-1.624v-1.859h3.207v3.072h-0.008c-0.013,2.124-2.279,3.837-4.518,3.837H231.84
		c-2.449-0.004-4.456-2.01-4.456-4.459V15.149C227.384,12.691,229.395,10.681,231.852,10.681L231.852,10.681L231.852,10.681z
		 M258.463,13.77c-0.239,0.602-0.532,1.176-0.879,1.713h6.43c0.18,0,0.354,0.008,0.529,0.029v-0.118
		c0-0.895-0.732-1.624-1.624-1.624H258.463L258.463,13.77L258.463,13.77z M258.973,27.193h10.014v10.758h-10.014
		c-2.959,0-5.38-2.42-5.38-5.379l0,0C253.593,29.61,256.014,27.193,258.973,27.193L258.973,27.193L258.973,27.193z M261.434,30.79
		c1.014,0,1.836,0.822,1.836,1.835c0,1.014-0.822,1.836-1.836,1.836c-1.013,0-1.835-0.822-1.835-1.836
		C259.599,31.612,260.421,30.79,261.434,30.79L261.434,30.79L261.434,30.79z"/>
</g>
</svg>
