<?xml version="1.0" encoding="utf-8"?>
<!-- Generator: Adobe Illustrator 15.0.0, SVG Export Plug-In . SVG Version: 6.00 Build 0)  -->
<!DOCTYPE svg PUBLIC "-//W3C//DTD SVG 1.1//EN" "http://www.w3.org/Graphics/SVG/1.1/DTD/svg11.dtd">
<svg version="1.1" id="Layer_1" xmlns="http://www.w3.org/2000/svg" xmlns:xlink="http://www.w3.org/1999/xlink" x="0px" y="0px"
	 width="57px" height="50px" viewBox="214.182 0 57 50" enable-background="new 214.182 0 57 50" xml:space="preserve">
<g>
	<path fill="#0019FF" d="M245.103,18.164l-2.808-2.808l-0.236,3.585l3.044,3.043V18.164L245.103,18.164z M234.283,14.282
		l-5.208,0.195c-0.606,0.021-1.115-0.452-1.135-1.058c-0.021-0.606,0.452-1.115,1.058-1.135l3.166-0.118l-3.585-3.585
		c-0.431-0.431-0.431-1.127,0-1.559c0.431-0.431,1.127-0.431,1.559,0l3.528,3.528l0.049-2.966c0.008-0.606,0.508-1.09,1.115-1.082
		c0.606,0.008,1.09,0.508,1.083,1.115l-0.082,5.094l4.569,4.57l0.261-3.979c0.028-0.484,0.447-0.854,0.932-0.822
		c0.224,0.012,0.419,0.11,0.565,0.256l0,0l2.938,2.938V8.472l-3.662-3.548c-0.436-0.423-0.443-1.119-0.021-1.554
		c0.423-0.436,1.119-0.443,1.555-0.021l2.128,2.063V1.103c0-0.61,0.492-1.103,1.103-1.103s1.104,0.492,1.104,1.103v4.382
		l2.322-2.152c0.443-0.415,1.14-0.391,1.555,0.057c0.415,0.443,0.391,1.139-0.057,1.554l-3.82,3.544v6.873l3.055-2.677
		c0.367-0.321,0.92-0.281,1.242,0.082c0.146,0.167,0.215,0.374,0.215,0.578h0.004v4.443l5.318-5.318l-0.081-5.094
		c-0.009-0.606,0.476-1.107,1.082-1.115c0.606-0.008,1.106,0.476,1.115,1.082l0.049,2.966l3.048-3.047
		c0.432-0.432,1.127-0.432,1.559,0c0.431,0.431,0.431,1.127,0,1.558l-3.102,3.101l3.166,0.118c0.606,0.021,1.082,0.529,1.059,1.135
		c-0.021,0.606-0.529,1.083-1.136,1.058l-5.208-0.195l-4.814,4.822l3.776,0.248c0.484,0.028,0.854,0.448,0.822,0.932
		c-0.013,0.224-0.11,0.419-0.257,0.566l0,0l-2.962,2.962h7.462l3.549-3.662c0.424-0.435,1.119-0.443,1.555-0.02
		c0.436,0.423,0.443,1.119,0.02,1.554l-2.063,2.128h4.305c0.611,0,1.104,0.493,1.104,1.103s-0.492,1.103-1.104,1.103h-4.369
		l2.152,2.322c0.414,0.444,0.391,1.141-0.058,1.555c-0.443,0.416-1.14,0.391-1.554-0.057l-3.545-3.82h-7.092l2.656,3.031
		c0.322,0.365,0.281,0.92-0.08,1.24c-0.168,0.146-0.375,0.217-0.578,0.217v0.004h-4.229l5.339,5.342l5.095-0.081
		c0.605-0.009,1.106,0.476,1.115,1.083c0.008,0.605-0.477,1.105-1.083,1.114l-2.966,0.049l3.047,3.048
		c0.432,0.432,0.432,1.127,0,1.559c-0.431,0.432-1.127,0.432-1.559,0l-3.1-3.102l-0.118,3.166c-0.021,0.606-0.529,1.082-1.136,1.059
		c-0.605-0.021-1.082-0.529-1.058-1.136l0.195-5.208l-5.046-5.046l-0.26,3.979c-0.029,0.484-0.447,0.854-0.932,0.822
		c-0.225-0.012-0.42-0.109-0.566-0.256l0,0l-3.039-3.04v7.21l3.82,3.545c0.443,0.414,0.469,1.11,0.057,1.554
		c-0.414,0.443-1.11,0.468-1.554,0.058l-2.323-2.153v5.065c0,0.611-0.492,1.104-1.103,1.104c-0.61,0-1.103-0.492-1.103-1.104v-4.988
		l-2.128,2.063c-0.436,0.423-1.131,0.415-1.555-0.021c-0.423-0.436-0.415-1.131,0.021-1.555l3.662-3.548v-6.722l-2.954,2.588
		c-0.366,0.321-0.919,0.28-1.241-0.082c-0.146-0.166-0.215-0.374-0.215-0.578h-0.004v-4.008l-4.875,4.867l0.195,5.208
		c0.021,0.606-0.452,1.115-1.058,1.136c-0.606,0.02-1.115-0.452-1.135-1.059l-0.118-3.166l-3.585,3.586
		c-0.431,0.431-1.127,0.431-1.559,0c-0.431-0.432-0.431-1.127,0-1.559l3.528-3.528l-2.966-0.049
		c-0.606-0.008-1.09-0.509-1.082-1.114c0.008-0.607,0.508-1.091,1.115-1.083l5.094,0.081l4.802-4.801l-4.183-0.277
		c-0.484-0.027-0.854-0.447-0.822-0.932c0.012-0.224,0.11-0.419,0.256-0.565l0,0l3.011-3.015h-6.946l-3.544,3.82
		c-0.415,0.443-1.111,0.469-1.554,0.057c-0.444-0.414-0.468-1.11-0.057-1.554l2.152-2.323h-5.066c-0.61,0-1.103-0.493-1.103-1.103
		s0.492-1.103,1.103-1.103h4.989l-2.063-2.128c-0.423-0.435-0.415-1.131,0.021-1.554c0.435-0.423,1.131-0.415,1.554,0.021
		l3.548,3.662h6.506l-2.608-2.979c-0.321-0.366-0.281-0.92,0.082-1.241c0.167-0.146,0.374-0.216,0.578-0.216v-0.004h4.224
		L234.283,14.282L234.283,14.282z M240.892,20.895h-4.049l2.344,2.673h4.378L240.892,20.895L240.892,20.895z M250.453,30.453
		l-3.145-3.146v3.821l2.909,2.909L250.453,30.453L250.453,30.453z M248.891,25.773l2.727,2.727h4.049l-2.389-2.727H248.891
		L248.891,25.773z M239.801,25.773l-2.885,2.885l3.788,0.248l3.137-3.137h-4.041V25.773z M249.16,23.568h3.601l2.836-2.836
		l-3.382-0.224L249.16,23.568L249.16,23.568z M242.454,30.273v3.829l2.649-2.323v-4.154L242.454,30.273L242.454,30.273z
		 M247.309,22.302l2.75-2.75v-4.265l-2.75,2.413V22.302L247.309,22.302z"/>
</g>
</svg>
