<?xml version="1.0" encoding="utf-8"?>
<!-- Generator: Adobe Illustrator 15.0.0, SVG Export Plug-In . SVG Version: 6.00 Build 0)  -->
<!DOCTYPE svg PUBLIC "-//W3C//DTD SVG 1.1//EN" "http://www.w3.org/Graphics/SVG/1.1/DTD/svg11.dtd">
<svg version="1.1" id="Layer_1" xmlns="http://www.w3.org/2000/svg" xmlns:xlink="http://www.w3.org/1999/xlink" x="0px" y="0px"
	 width="51.298px" height="50px" viewBox="224.352 0 51.298 50" enable-background="new 224.352 0 51.298 50" xml:space="preserve">
<title>realtime</title>
<path fill="#2E7331" d="M250.651,3.26c-0.9,0.045-1.667-0.647-1.713-1.548c-0.045-0.9,0.647-1.667,1.548-1.712
	c0.055-0.003,0.109-0.003,0.165,0c4.489-0.006,8.897,1.203,12.757,3.498l-0.163,0.138c-0.727,0.655-1.49,1.419-2.263,2.233
	C257.809,4.154,254.258,3.258,250.651,3.26z M244.365,19.724l4.325-0.059l0.321,0.083c0.877,0.498,1.706,1.076,2.476,1.729
	c0.563,0.476,1.094,0.987,1.59,1.532c1.943-3.006,4.046-5.906,6.299-8.687c1.916-2.309,4.634-5.556,6.759-7.456l0.417-0.163h4.722
	L270.32,7.76c-3.1,3.566-5.99,7.308-8.657,11.208c-2.4,3.469-5.907,8.841-7.814,12.523l-0.593,1.144l-0.547-1.164
	c-0.967-2.113-2.191-4.098-3.644-5.911c-1.45-1.799-3.152-3.378-5.055-4.688l0.355-1.156V19.724z M241.104,13.232
	c-0.481-0.756-0.258-1.76,0.499-2.241c0.757-0.481,1.761-0.258,2.242,0.499c0.026,0.042,0.051,0.084,0.073,0.127l0.73,1.252
	c0.447,0.778,0.179,1.771-0.599,2.218c-0.778,0.447-1.771,0.179-2.218-0.599l-0.727-1.252V13.232z M236.358,19.586
	c-0.778-0.451-1.043-1.447-0.593-2.225c0.451-0.778,1.447-1.043,2.225-0.593l1.252,0.73c0.778,0.451,1.043,1.447,0.593,2.225
	c-0.451,0.778-1.447,1.043-2.225,0.593l0,0L236.358,19.586z M238.65,34.563c-0.778,0.447-1.771,0.179-2.219-0.599
	c-0.447-0.778-0.179-1.771,0.599-2.219l1.252-0.73c0.778-0.447,1.771-0.18,2.219,0.599s0.179,1.771-0.599,2.219L238.65,34.563z
	 M235.168,26.633c-0.896,0-1.624-0.727-1.625-1.624s0.726-1.624,1.623-1.625c0.001,0,0.001,0,0.002,0h1.457
	c0.897-0.001,1.624,0.726,1.625,1.623c0,0.897-0.726,1.625-1.623,1.625c0,0-0.001,0-0.002,0H235.168z M251.77,39.99
	c0,0.896-0.728,1.623-1.625,1.623c-0.896-0.001-1.622-0.727-1.623-1.623v-1.461c0-0.896,0.728-1.623,1.625-1.623
	c0.896,0,1.623,0.727,1.623,1.623V39.99z M248.522,10.019c0-0.897,0.728-1.624,1.625-1.623c0.896,0,1.623,0.727,1.623,1.623v1.461
	c0.001,0.896-0.726,1.624-1.623,1.625c-0.896,0-1.624-0.726-1.625-1.623c0-0.001,0-0.001,0-0.002V10.019z M244.064,38.783
	c-0.451,0.777-1.446,1.042-2.223,0.591c-0.777-0.45-1.042-1.446-0.591-2.223l0,0l0.727-1.253c0.448-0.781,1.445-1.051,2.227-0.603
	c0.781,0.448,1.051,1.445,0.603,2.228l-0.73,1.252L244.064,38.783z M259.709,37.151c0.385,0.811,0.039,1.778-0.771,2.163
	c-0.716,0.34-1.571,0.113-2.026-0.535l-0.73-1.252c-0.449-0.778-0.183-1.773,0.596-2.223c0.777-0.449,1.773-0.184,2.223,0.594
	l0.73,1.253H259.709z M263.93,31.725c0.764,0.476,0.996,1.48,0.521,2.242c-0.454,0.729-1.394,0.979-2.149,0.576l-1.253-0.73
	c-0.777-0.451-1.043-1.447-0.592-2.226c0.45-0.778,1.446-1.044,2.225-0.593l0,0l1.252,0.73H263.93z M266.125,23.376
	c0.896,0,1.625,0.726,1.625,1.623c0.001,0.897-0.726,1.624-1.623,1.625c0,0-0.001,0-0.002,0h-1.553
	c-0.896-0.001-1.623-0.728-1.623-1.625c0.001-0.896,0.728-1.622,1.623-1.623H266.125z M231.241,7.096
	c0.21-0.078,0.431-0.123,0.655-0.133c1.044-0.171,2.054,0.46,2.358,1.474l1.732,5.631c0.371,1.108-0.226,2.308-1.334,2.679
	c-1.108,0.371-2.308-0.227-2.679-1.334c-0.013-0.039-0.025-0.078-0.036-0.117l-0.275-0.897c-5.856,10.481-2.107,23.726,8.374,29.582
	c8.492,4.745,19.104,3.271,25.981-3.61c6.697-6.696,8.289-16.959,3.936-25.371c0.727-0.935,1.47-1.858,2.209-2.734
	c7.031,11.882,3.1,27.215-8.782,34.248s-27.215,3.101-34.247-8.781c-2.281-3.855-3.485-8.252-3.486-12.73
	c0-4.398,1.163-8.718,3.369-12.523l-1.787,0.676c-1.096,0.416-2.322-0.135-2.738-1.231s0.135-2.322,1.231-2.738l0,0L231.241,7.096z"
	/>
</svg>
