<?xml version="1.0" encoding="utf-8"?>
<!-- Generator: Adobe Illustrator 15.0.0, SVG Export Plug-In . SVG Version: 6.00 Build 0)  -->
<!DOCTYPE svg PUBLIC "-//W3C//DTD SVG 1.1//EN" "http://www.w3.org/Graphics/SVG/1.1/DTD/svg11.dtd">
<svg version="1.1"
	 id="Layer_1" image-rendering="optimizeQuality" shape-rendering="geometricPrecision" text-rendering="geometricPrecision"
	 xmlns="http://www.w3.org/2000/svg" xmlns:xlink="http://www.w3.org/1999/xlink" x="0px" y="0px" width="44.131px" height="50px"
	 viewBox="227.935 0 44.131 50" enable-background="new 227.935 0 44.131 50" xml:space="preserve">
<path fill="#2E7331" d="M260.785,24.917h6.284v-1.216c-0.358-1.331-0.931-2.233-1.673-2.782c-0.74-0.548-1.701-0.782-2.829-0.774
	l-25.771,0.006c-0.635,0-1.148-0.515-1.148-1.148c0-0.635,0.514-1.148,1.148-1.148l25.741,0.003c1.62-0.016,3.049,0.354,4.223,1.224
	c0.105,0.078,0.209,0.16,0.31,0.246v-0.69c0-1.072-0.442-2.052-1.153-2.764c-0.707-0.712-1.685-1.152-2.763-1.152h-0.829
	l-0.105-0.005l-0.406,1.519h-2.784l1.651-6.197c-1.388-0.371-2.216-1.807-1.844-3.195l-9.188-2.461
	c-0.372,1.387-1.806,2.217-3.192,1.845l-2.698,10.008h-2.872L245.255,0l19.498,5.225l-1.923,7.199h0.323
	c1.704,0,3.257,0.702,4.384,1.828c1.129,1.124,1.828,2.68,1.828,4.386v6.345c0.664,0.132,1.256,0.46,1.717,0.92
	c0.605,0.605,0.983,1.445,0.983,2.37v7.552c0,0.964-0.395,1.84-1.026,2.473c-0.453,0.451-1.029,0.783-1.674,0.934v4.557
	c0,1.704-0.7,3.26-1.827,4.387l-0.072,0.066c-1.122,1.086-2.647,1.76-4.313,1.76h-29.006c-1.706,0-3.261-0.7-4.388-1.826
	c-1.125-1.125-1.825-2.678-1.825-4.387v-25.15c0-1.71,0.699-3.264,1.824-4.389c1.125-1.125,2.679-1.825,4.389-1.825h3.624
	l0.016,0.001l2.885-10.716l2.752,0.737l-3.781,13.789h-2.882l0.408-1.514h-3.022c-1.075,0-2.054,0.441-2.765,1.151
	c-0.709,0.71-1.151,1.69-1.151,2.765v25.15c0,1.074,0.442,2.053,1.153,2.763c0.711,0.712,1.691,1.153,2.763,1.153h29.006
	c1.048,0,2.005-0.42,2.708-1.098l0.053-0.057c0.713-0.711,1.155-1.691,1.155-2.762v-4.463h-6.284c-1.94,0-3.705-0.795-4.98-2.07
	l-0.12-0.132c-1.207-1.27-1.951-2.979-1.951-4.851v-0.303c0-1.932,0.794-3.693,2.071-4.974l0.012-0.013
	C257.096,25.709,258.855,24.917,260.785,24.917z M251.441,15.832c1.678,0.449,3.406-0.547,3.855-2.226
	c0.449-1.678-0.548-3.406-2.227-3.855c-1.68-0.449-3.407,0.547-3.856,2.226C248.765,13.654,249.763,15.381,251.441,15.832z
	 M263.308,30.176l0.006,0.006c1.067,1.069,1.064,2.811-0.002,3.879l-0.005,0.006c-1.07,1.068-2.811,1.064-3.881-0.002l-0.005-0.004
	c-1.067-1.07-1.064-2.812,0.002-3.881l0.005-0.006C260.498,29.107,262.238,29.109,263.308,30.176z"/>
</svg>
